M48
; DRILL file {KiCad (5.1.9-0-10_14)} date Sunday, February 07, 2021 at 04:39:18 AM
; FORMAT={-:-/ absolute / metric / decimal}
; #@! TF.CreationDate,2021-02-07T04:39:18+07:00
; #@! TF.GenerationSoftware,Kicad,Pcbnew,(5.1.9-0-10_14)
FMAT,2
METRIC
T1C0.400
T2C0.600
T3C0.813
T4C1.000
T5C1.200
T6C1.470
T7C1.500
T8C0.650
T9C0.900
T10C1.500
T11C1.750
T12C3.048
T13C3.988
%
G90
G05
T1
X-19.382Y49.638
X-17.844Y59.908
X-15.462Y82.133
X-13.081Y45.62
X-13.081Y39.27
X-12.212Y32.595
X-10.804Y79.285
X-10.7Y48.002
X-10.112Y95.277
X-9.906Y50.383
X-9.906Y43.239
X-7.838Y110.001
X-5.206Y116.842
X-4.984Y75.485
X0.238Y32.795
X0.994Y40.442
X1.094Y71.742
X1.331Y100.32
X4.381Y63.877
X5.006Y67.695
X5.138Y50.445
X5.594Y113.842
X13.506Y64.745
X20.194Y121.242
X21.844Y55.145
X22.306Y110.945
X26.088Y59.745
X27.4Y35.302
X27.838Y55.095
X40.894Y112.295
X44.863Y58.32
X45.656Y81.339
X45.656Y64.67
X45.656Y51.177
X48.594Y44.442
X48.844Y39.442
X51.213Y38.477
X51.213Y33.714
X52.794Y99.442
X52.794Y96.642
X56.769Y54.352
X80.581Y33.714
X95.663Y25.777
X98.044Y112.295
X109.594Y45.242
X109.594Y42.642
X109.994Y97.042
X110.194Y100.242
X111.538Y32.92
X114.794Y95.642
X115.506Y47.208
X116.014Y119.915
X117.538Y117.375
X119.472Y100.386
X119.542Y98.805
X119.581Y43.32
X123.081Y98.12
X123.556Y41.195
X125.825Y63.083
T3
X-21.154Y60.885
X-21.154Y58.345
X-21.154Y55.805
X-21.154Y53.265
X-21.154Y50.725
X-21.154Y48.185
X-21.154Y45.645
X-21.154Y43.105
X-21.154Y40.565
X-21.154Y38.025
X-21.154Y35.485
X-21.154Y32.945
X-18.972Y90.958
X-16.432Y90.958
X-13.892Y90.958
X-11.352Y90.958
X-5.934Y60.885
X-5.934Y58.345
X-5.934Y55.805
X-5.934Y53.265
X-5.934Y50.725
X-5.934Y48.185
X-5.934Y45.645
X-5.934Y43.105
X-5.934Y40.565
X-5.934Y38.025
X-5.934Y35.485
X-5.934Y32.945
T4
X-17.687Y116.105
X-17.687Y101.605
X-15.187Y101.605
X-13.884Y86.125
X-13.884Y83.625
X-12.687Y116.105
X-12.687Y101.605
X-4.404Y113.385
X-4.404Y110.845
X-4.404Y108.305
X-4.404Y105.765
T5
X-13.081Y27.361
T6
X-19.01Y111.657
X-12.66Y114.197
X6.922Y111.657
X9.303Y73.557
X9.303Y54.507
X9.303Y35.457
X11.684Y92.607
X13.272Y114.197
X14.066Y73.557
X15.653Y76.097
X15.653Y57.047
X15.653Y37.997
X18.034Y95.147
X18.828Y54.507
X20.416Y76.097
X25.178Y57.047
X25.972Y111.657
X30.734Y54.507
X32.322Y114.197
X33.116Y35.457
X35.497Y92.607
X37.084Y57.047
X39.466Y37.997
X40.259Y73.557
X41.847Y95.147
X45.022Y111.657
X46.609Y76.097
X49.784Y54.507
X51.372Y114.197
X54.547Y92.607
X56.134Y57.047
X56.928Y35.457
X59.309Y73.557
X60.897Y95.147
X63.278Y37.997
X64.072Y111.657
X65.659Y76.097
X68.834Y54.507
X70.422Y114.197
X73.597Y92.607
X75.184Y57.047
X78.359Y73.557
X79.947Y95.147
X83.122Y111.657
X84.709Y76.097
X87.884Y54.507
X89.472Y114.197
X90.266Y35.457
X92.647Y92.607
X94.234Y57.047
X96.616Y37.997
X97.409Y73.557
X98.997Y95.147
X102.172Y111.657
X103.759Y76.097
X106.934Y54.507
X108.522Y114.197
X111.697Y92.607
X113.284Y57.047
X116.459Y73.557
X118.047Y95.147
X121.222Y111.657
X122.809Y76.097
X123.603Y35.457
X125.984Y54.507
X127.572Y114.197
X129.953Y37.997
X132.334Y57.047
T8
X17.364Y120.317
X23.144Y120.317
T9
X-19.604Y85.985
X-19.604Y82.985
T10
X115.504Y122.577
X115.504Y115.577
T11
X-20.28Y109.117
X-10.12Y109.117
X5.652Y109.117
X8.033Y71.017
X8.033Y51.967
X8.033Y32.917
X10.414Y90.067
X12.796Y71.017
X15.812Y109.117
X17.558Y51.967
X18.193Y71.017
X18.193Y51.967
X18.193Y32.917
X20.574Y90.067
X22.956Y71.017
X24.702Y109.117
X27.718Y51.967
X29.464Y51.967
X31.846Y32.917
X34.227Y90.067
X34.862Y109.117
X38.989Y71.017
X39.624Y51.967
X42.006Y32.917
X43.752Y109.117
X44.387Y90.067
X48.514Y51.967
X49.149Y71.017
X53.277Y90.067
X53.912Y109.117
X55.658Y32.917
X58.039Y71.017
X58.674Y51.967
X62.802Y109.117
X63.437Y90.067
X65.818Y32.917
X67.564Y51.967
X68.199Y71.017
X72.327Y90.067
X72.962Y109.117
X77.089Y71.017
X77.724Y51.967
X81.852Y109.117
X82.487Y90.067
X86.614Y51.967
X87.249Y71.017
X88.996Y32.917
X91.377Y90.067
X92.012Y109.117
X96.139Y71.017
X96.774Y51.967
X99.156Y32.917
X100.902Y109.117
X101.537Y90.067
X105.664Y51.967
X106.299Y71.017
X110.427Y90.067
X111.062Y109.117
X115.189Y71.017
X115.824Y51.967
X119.952Y109.117
X120.587Y90.067
X122.333Y32.917
X124.714Y51.967
X125.349Y71.017
X130.112Y109.117
X132.493Y32.917
X134.874Y51.967
T12
X10.732Y58.952
X34.544Y58.952
X82.169Y25.932
X105.982Y25.932
T13
X-15.2Y109.117
X10.732Y109.117
X10.732Y43.712
X13.113Y71.017
X13.113Y51.967
X13.113Y32.917
X15.494Y90.067
X17.876Y71.017
X22.638Y51.967
X29.782Y109.117
X34.544Y51.967
X34.544Y43.712
X36.926Y32.917
X39.307Y90.067
X44.069Y71.017
X48.832Y109.117
X53.594Y51.967
X58.357Y90.067
X60.738Y32.917
X63.119Y71.017
X67.882Y109.117
X72.644Y51.967
X77.407Y90.067
X82.169Y71.017
X82.169Y41.172
X86.932Y109.117
X91.694Y51.967
X94.076Y32.917
X96.457Y90.067
X101.219Y71.017
X105.982Y109.117
X105.982Y41.172
X110.744Y51.967
X115.507Y90.067
X120.269Y71.017
X125.032Y109.117
X127.413Y32.917
X129.794Y51.967
T2
G00X15.934Y124.267
M15
G01X15.934Y123.667
M16
G05
G00X15.934Y120.337
M15
G01X15.934Y119.237
M16
G05
G00X24.574Y124.267
M15
G01X24.574Y123.667
M16
G05
G00X24.574Y120.337
M15
G01X24.574Y119.237
M16
G05
T7
G00X-20.787Y108.455
M15
G01X-20.787Y109.755
M16
G05
G00X-9.587Y108.455
M15
G01X-9.587Y109.755
M16
G05
T0
M30
