M48
; DRILL file {KiCad (5.1.8-0-10_14)} date Tuesday, January 26, 2021 at 12:34:14 AM
; FORMAT={-:-/ absolute / metric / decimal}
; #@! TF.CreationDate,2021-01-26T00:34:14+07:00
; #@! TF.GenerationSoftware,Kicad,Pcbnew,(5.1.8-0-10_14)
FMAT,2
METRIC
T1C0.400
T2C0.600
T3C0.813
T4C1.000
T5C1.200
T6C1.470
T7C1.500
T8C0.650
T9C0.787
T10C0.900
T11C1.500
T12C1.750
T13C3.048
T14C3.988
%
G90
G05
T1
X-19.382Y49.638
X-17.844Y59.908
X-15.462Y82.133
X-13.081Y45.62
X-13.081Y39.27
X-12.212Y32.595
X-10.804Y79.285
X-10.7Y48.002
X-10.112Y95.277
X-9.906Y50.383
X-9.906Y43.239
X-7.838Y110.001
X-5.206Y116.842
X-4.984Y75.485
X0.238Y32.795
X0.994Y40.442
X1.094Y71.742
X1.331Y100.32
X4.381Y63.877
X5.006Y67.695
X5.138Y50.445
X5.594Y113.842
X13.506Y64.745
X20.194Y121.242
X21.844Y55.145
X22.306Y110.945
X26.088Y59.745
X27.4Y35.302
X27.838Y55.095
X40.894Y112.295
X44.863Y58.32
X45.656Y81.339
X45.656Y64.67
X45.656Y51.177
X48.594Y44.442
X48.844Y39.442
X51.213Y38.477
X51.213Y33.714
X52.794Y99.442
X52.794Y96.642
X56.769Y54.352
X80.581Y33.714
X95.663Y25.777
X98.044Y112.295
X109.594Y45.242
X109.594Y42.642
X109.994Y97.042
X110.194Y100.242
X111.538Y32.92
X114.794Y95.642
X115.506Y47.208
X116.014Y119.915
X117.538Y117.375
X119.472Y100.386
X119.542Y98.805
X119.581Y43.32
X123.081Y98.12
X123.556Y41.195
X125.825Y63.083
X144.081Y63.083
X145.669Y67.845
X155.983Y96.411
X158.364Y44.023
X158.364Y40.848
X161.324Y97.986
X165.147Y119.788
X182.181Y25.777
X185.356Y43.239
X194.088Y100.389
X194.195Y95.627
X224.156Y36.195
X238.606Y35.795
X240.125Y25.777
X244.356Y105.745
X261.556Y32.92
X271.875Y101.183
X271.875Y96.42
X279.019Y21.808
X279.927Y121.158
X285.356Y31.495
X287.407Y115.098
X288.358Y100.936
X288.777Y115.268
X290.131Y55.939
X290.925Y40.858
X291.716Y44.165
X291.719Y74.195
X294.1Y59.908
X294.357Y114.818
X294.457Y116.073
X294.522Y117.493
X294.928Y105.118
X296.477Y62.279
X296.481Y78.958
X297.056Y30.495
X297.275Y87.689
X298.024Y70.236
X298.104Y117.596
X298.617Y41.308
X298.769Y100.295
X299.027Y39.958
X299.158Y68.836
X300.537Y71.228
X301.837Y111.098
X301.956Y42.445
X302.713Y71.804
X306.427Y95.978
X309.858Y95.599
X310.097Y53.748
X311.947Y50.818
X312.356Y38.477
X312.356Y35.302
X312.356Y32.127
X312.377Y58.828
X312.867Y71.718
X313.15Y44.033
X313.789Y69.146
X314.738Y40.858
X315.014Y96.736
X315.531Y48.002
X316.887Y73.348
X320.289Y95.256
T3
X-21.154Y60.885
X-21.154Y58.345
X-21.154Y55.805
X-21.154Y53.265
X-21.154Y50.725
X-21.154Y48.185
X-21.154Y45.645
X-21.154Y43.105
X-21.154Y40.565
X-21.154Y38.025
X-21.154Y35.485
X-21.154Y32.945
X-5.934Y60.885
X-5.934Y58.345
X-5.934Y55.805
X-5.934Y53.265
X-5.934Y50.725
X-5.934Y48.185
X-5.934Y45.645
X-5.934Y43.105
X-5.934Y40.565
X-5.934Y38.025
X-5.934Y35.485
X-5.934Y32.945
X311.496Y90.948
X314.036Y90.948
X316.576Y90.948
X319.116Y90.948
X-18.972Y90.958
X-16.432Y90.958
X-13.892Y90.958
X-11.352Y90.958
X306.002Y60.882
X306.002Y58.342
X306.002Y55.802
X306.002Y53.262
X306.002Y50.722
X306.002Y48.182
X306.002Y45.642
X306.002Y43.102
X306.002Y40.562
X306.002Y38.022
X306.002Y35.482
X306.002Y32.942
X321.222Y60.882
X321.222Y58.342
X321.222Y55.802
X321.222Y53.262
X321.222Y50.722
X321.222Y48.182
X321.222Y45.642
X321.222Y43.102
X321.222Y40.562
X321.222Y38.022
X321.222Y35.482
X321.222Y32.942
T4
X-4.404Y113.385
X-4.404Y110.845
X-4.404Y108.305
X-4.404Y105.765
X-13.884Y86.125
X-13.884Y83.625
X-17.687Y116.105
X-17.687Y101.605
X-15.187Y101.605
X-12.687Y116.105
X-12.687Y101.605
X313.939Y86.092
X313.939Y83.592
X312.782Y116.095
X312.782Y101.595
X315.282Y101.595
X317.782Y116.095
X317.782Y101.595
X304.414Y113.397
X304.414Y110.857
X304.414Y108.317
X304.414Y105.777
T5
X313.146Y23.386
X-13.081Y27.361
T6
X30.734Y54.507
X37.084Y57.047
X275.998Y111.651
X282.348Y114.191
X9.303Y35.457
X15.653Y37.997
X147.411Y73.551
X153.761Y76.091
X166.461Y73.551
X172.811Y76.091
X237.898Y92.601
X244.248Y95.141
X195.036Y54.501
X201.386Y57.041
X56.928Y35.457
X63.278Y37.997
X209.323Y111.651
X215.673Y114.191
X247.423Y35.451
X253.773Y37.991
X83.122Y111.657
X89.472Y114.197
X199.798Y92.601
X206.148Y95.141
X214.086Y54.501
X220.436Y57.041
X121.222Y111.657
X127.572Y114.197
X311.458Y111.647
X317.808Y114.187
X92.647Y92.607
X98.997Y95.147
X97.409Y73.557
X103.759Y76.097
X9.303Y54.507
X15.653Y57.047
X11.684Y92.607
X18.034Y95.147
X54.547Y92.607
X60.897Y95.147
X68.834Y54.507
X75.184Y57.047
X-19.01Y111.657
X-12.66Y114.197
X280.761Y92.601
X287.111Y95.141
X309.336Y30.688
X315.686Y33.228
X64.072Y111.657
X70.422Y114.197
X233.136Y54.501
X239.486Y57.041
X6.922Y111.657
X13.272Y114.197
X45.022Y111.657
X51.372Y114.197
X40.259Y73.557
X46.609Y76.097
X228.373Y35.451
X234.723Y37.991
X273.617Y73.551
X279.967Y76.091
X73.597Y92.607
X79.947Y95.147
X228.373Y111.651
X234.723Y114.191
X87.884Y54.507
X94.234Y57.047
X290.286Y49.738
X296.636Y52.278
X242.661Y73.551
X249.011Y76.091
X209.323Y35.451
X215.673Y37.991
X173.604Y35.451
X179.954Y37.991
X190.273Y111.651
X196.623Y114.191
X152.173Y111.651
X158.523Y114.191
X123.603Y35.457
X129.953Y37.997
X9.303Y73.557
X15.653Y76.097
X256.948Y92.601
X263.298Y95.141
X185.511Y73.551
X191.861Y76.091
X180.748Y92.601
X187.098Y95.141
X271.236Y30.688
X277.586Y33.228
X204.561Y73.551
X210.911Y76.091
X223.611Y73.551
X229.961Y76.091
X259.329Y54.501
X265.679Y57.041
X242.661Y35.451
X249.011Y37.991
X285.523Y111.651
X291.873Y114.191
X156.936Y54.501
X163.286Y57.041
X102.172Y111.657
X108.522Y114.197
X290.286Y30.688
X296.636Y33.228
X35.497Y92.607
X41.847Y95.147
X59.309Y73.557
X65.659Y76.097
X111.697Y92.607
X118.047Y95.147
X214.086Y35.451
X220.436Y37.991
X106.934Y54.507
X113.284Y57.047
X175.986Y54.501
X182.336Y57.041
X33.116Y35.457
X39.466Y37.997
X49.784Y54.507
X56.134Y57.047
X18.828Y54.507
X25.178Y57.047
X218.848Y92.601
X225.198Y95.141
X25.972Y111.657
X32.322Y114.197
X266.473Y111.651
X272.823Y114.191
X78.359Y73.557
X84.709Y76.097
X116.459Y73.557
X122.809Y76.097
X261.711Y73.551
X268.061Y76.091
X289.496Y84.514
X292.036Y78.164
X90.266Y35.457
X96.616Y37.997
X14.066Y73.557
X20.416Y76.097
X171.223Y111.651
X177.573Y114.191
X247.423Y111.651
X253.773Y114.191
X125.984Y54.507
X132.334Y57.047
X161.698Y92.601
X168.048Y95.141
X142.648Y92.601
X148.998Y95.141
T8
X276.918Y120.331
X282.698Y120.331
X17.364Y120.317
X23.144Y120.317
T9
X137.192Y92.61
X137.192Y91.34
X137.192Y90.07
X137.192Y88.8
X137.192Y87.53
X134.302Y111.66
X134.302Y110.39
X134.302Y109.12
X134.302Y107.85
X134.302Y106.58
X139.065Y54.51
X139.065Y53.24
X139.065Y51.97
X139.065Y50.7
X139.065Y49.43
X151.479Y54.51
X151.479Y53.24
X151.479Y51.97
X151.479Y50.7
X151.479Y49.43
X124.777Y92.61
X124.777Y91.34
X124.777Y90.07
X124.777Y88.8
X124.777Y87.53
X129.54Y73.56
X129.54Y72.29
X129.54Y71.02
X129.54Y69.75
X129.54Y68.48
X146.717Y111.66
X146.717Y110.39
X146.717Y109.12
X146.717Y107.85
X146.717Y106.58
X141.954Y73.56
X141.954Y72.29
X141.954Y71.02
X141.954Y69.75
X141.954Y68.48
X151.479Y35.46
X151.479Y34.19
X151.479Y32.92
X151.479Y31.65
X151.479Y30.38
X139.065Y35.46
X139.065Y34.19
X139.065Y32.92
X139.065Y31.65
X139.065Y30.38
T10
X-19.604Y85.985
X-19.604Y82.985
X319.668Y85.961
X319.668Y82.961
T11
X115.504Y122.577
X115.504Y115.577
X165.513Y122.627
X165.513Y115.627
T12
X286.956Y85.784
X286.956Y75.624
X88.996Y32.917
X99.156Y32.917
X12.796Y71.017
X22.956Y71.017
X169.953Y109.111
X180.113Y109.111
X246.153Y109.111
X256.313Y109.111
X124.714Y51.967
X134.874Y51.967
X160.428Y90.061
X170.588Y90.061
X141.378Y90.061
X151.538Y90.061
X29.464Y51.967
X39.624Y51.967
X274.728Y109.111
X284.888Y109.111
X8.033Y32.917
X18.193Y32.917
X146.141Y71.011
X156.301Y71.011
X165.191Y71.011
X175.351Y71.011
X236.628Y90.061
X246.788Y90.061
X193.766Y51.961
X203.926Y51.961
X55.658Y32.917
X65.818Y32.917
X208.053Y109.111
X218.213Y109.111
X246.153Y32.911
X256.313Y32.911
X81.852Y109.117
X92.012Y109.117
X198.528Y90.061
X208.688Y90.061
X212.816Y51.961
X222.976Y51.961
X119.952Y109.117
X130.112Y109.117
X310.188Y109.107
X320.348Y109.107
X91.377Y90.067
X101.537Y90.067
X96.139Y71.017
X106.299Y71.017
X8.033Y51.967
X18.193Y51.967
X10.414Y90.067
X20.574Y90.067
X53.277Y90.067
X63.437Y90.067
X67.564Y51.967
X77.724Y51.967
X-20.28Y109.117
X-10.12Y109.117
X279.491Y90.061
X289.651Y90.061
X308.066Y28.148
X318.226Y28.148
X62.802Y109.117
X72.962Y109.117
X231.866Y51.961
X242.026Y51.961
X5.652Y109.117
X15.812Y109.117
X43.752Y109.117
X53.912Y109.117
X38.989Y71.017
X49.149Y71.017
X227.103Y32.911
X237.263Y32.911
X272.347Y71.011
X282.507Y71.011
X72.327Y90.067
X82.487Y90.067
X227.103Y109.111
X237.263Y109.111
X86.614Y51.967
X96.774Y51.967
X289.016Y47.198
X299.176Y47.198
X241.391Y71.011
X251.551Y71.011
X208.053Y32.911
X218.213Y32.911
X172.334Y32.911
X182.494Y32.911
X189.003Y109.111
X199.163Y109.111
X150.903Y109.111
X161.063Y109.111
X122.333Y32.917
X132.493Y32.917
X8.033Y71.017
X18.193Y71.017
X255.678Y90.061
X265.838Y90.061
X184.241Y71.011
X194.401Y71.011
X179.478Y90.061
X189.638Y90.061
X269.966Y28.148
X280.126Y28.148
X203.291Y71.011
X213.451Y71.011
X222.341Y71.011
X232.501Y71.011
X258.059Y51.961
X268.219Y51.961
X241.391Y32.911
X251.551Y32.911
X284.253Y109.111
X294.413Y109.111
X155.666Y51.961
X165.826Y51.961
X100.902Y109.117
X111.062Y109.117
X289.016Y28.148
X299.176Y28.148
X34.227Y90.067
X44.387Y90.067
X58.039Y71.017
X68.199Y71.017
X110.427Y90.067
X120.587Y90.067
X212.816Y32.911
X222.976Y32.911
X105.664Y51.967
X115.824Y51.967
X174.716Y51.961
X184.876Y51.961
X31.846Y32.917
X42.006Y32.917
X48.514Y51.967
X58.674Y51.967
X17.558Y51.967
X27.718Y51.967
X217.578Y90.061
X227.738Y90.061
X24.702Y109.117
X34.862Y109.117
X265.203Y109.111
X275.363Y109.111
X77.089Y71.017
X87.249Y71.017
X115.189Y71.017
X125.349Y71.017
X260.441Y71.011
X270.601Y71.011
T13
X189.321Y25.926
X293.941Y92.642
X293.941Y68.766
X82.169Y25.932
X105.982Y25.932
X267.902Y116.096
X291.714Y116.096
X265.521Y77.996
X289.333Y77.996
X165.508Y25.926
X10.732Y58.952
X34.544Y58.952
T14
X289.333Y109.111
X160.746Y51.961
X105.982Y109.117
X294.096Y28.148
X39.307Y90.067
X63.119Y71.017
X115.507Y90.067
X217.896Y32.911
X110.744Y51.967
X179.796Y51.961
X36.926Y32.917
X53.594Y51.967
X10.732Y43.712
X22.638Y51.967
X34.544Y43.712
X222.658Y90.061
X29.782Y109.117
X270.283Y109.111
X82.169Y71.017
X120.269Y71.017
X265.521Y71.011
X278.701Y92.642
X278.701Y68.766
X286.956Y80.704
X82.169Y41.172
X94.076Y32.917
X105.982Y41.172
X17.876Y71.017
X175.033Y109.111
X251.233Y109.111
X129.794Y51.967
X165.508Y90.061
X146.458Y90.061
X34.544Y51.967
X267.902Y100.856
X279.808Y109.111
X291.714Y100.856
X13.113Y32.917
X151.221Y71.011
X170.271Y71.011
X241.708Y90.061
X198.846Y51.961
X60.738Y32.917
X213.133Y109.111
X251.233Y32.911
X86.932Y109.117
X203.608Y90.061
X217.896Y51.961
X125.032Y109.117
X315.268Y109.107
X96.457Y90.067
X101.219Y71.017
X13.113Y51.967
X15.494Y90.067
X58.357Y90.067
X72.644Y51.967
X-15.2Y109.117
X284.571Y90.061
X313.146Y28.148
X67.882Y109.117
X236.946Y51.961
X10.732Y109.117
X48.832Y109.117
X44.069Y71.017
X232.183Y32.911
X265.521Y62.756
X277.427Y71.011
X289.333Y62.756
X77.407Y90.067
X232.183Y109.111
X91.694Y51.967
X294.096Y47.198
X246.471Y71.011
X213.133Y32.911
X165.508Y41.166
X177.414Y32.911
X189.321Y41.166
X194.083Y109.111
X155.983Y109.111
X127.413Y32.917
X13.113Y71.017
X260.758Y90.061
X189.321Y71.011
X184.558Y90.061
X275.046Y28.148
X208.371Y71.011
X227.421Y71.011
X263.139Y51.961
X246.471Y32.911
T2
G00X275.488Y124.281
M15
G01X275.488Y123.681
M16
G05
G00X275.488Y120.351
M15
G01X275.488Y119.251
M16
G05
G00X284.128Y124.281
M15
G01X284.128Y123.681
M16
G05
G00X284.128Y120.351
M15
G01X284.128Y119.251
M16
G05
G00X15.934Y124.267
M15
G01X15.934Y123.667
M16
G05
G00X15.934Y120.337
M15
G01X15.934Y119.237
M16
G05
G00X24.574Y124.267
M15
G01X24.574Y123.667
M16
G05
G00X24.574Y120.337
M15
G01X24.574Y119.237
M16
G05
T7
G00X-20.787Y108.455
M15
G01X-20.787Y109.755
M16
G05
G00X-9.587Y108.455
M15
G01X-9.587Y109.755
M16
G05
G00X309.682Y108.445
M15
G01X309.682Y109.745
M16
G05
G00X320.882Y108.445
M15
G01X320.882Y109.745
M16
G05
T0
M30
