M48
; DRILL file {KiCad (5.1.8-0-10_14)} date Saturday, January 23, 2021 at 08:06:15 PM
; FORMAT={-:-/ absolute / metric / decimal}
; #@! TF.CreationDate,2021-01-23T20:06:15+07:00
; #@! TF.GenerationSoftware,Kicad,Pcbnew,(5.1.8-0-10_14)
FMAT,2
METRIC
T1C0.400
T2C0.600
T3C0.813
T4C1.000
T5C1.200
T6C1.470
T7C1.500
T8C0.500
T9C0.650
T10C0.900
T11C1.500
T12C1.750
T13C3.048
T14C3.988
%
G90
G05
T1
X-202.787Y63.083
X-201.2Y67.845
X-190.886Y96.411
X-188.504Y44.023
X-188.504Y40.848
X-185.544Y97.986
X-181.722Y119.788
X-164.687Y25.777
X-161.512Y43.239
X-152.781Y100.389
X-152.674Y95.627
X-122.712Y36.195
X-108.262Y35.795
X-106.744Y25.777
X-102.512Y105.745
X-85.312Y32.92
X-74.994Y101.183
X-74.994Y96.42
X-67.85Y21.808
X-66.942Y121.158
X-61.512Y31.495
X-59.462Y115.098
X-58.511Y100.936
X-58.092Y115.268
X-56.737Y55.939
X-55.944Y40.858
X-55.152Y44.165
X-55.15Y74.195
X-52.769Y59.908
X-52.512Y114.818
X-52.412Y116.073
X-52.347Y117.493
X-51.941Y105.118
X-50.392Y62.279
X-50.387Y78.958
X-49.812Y30.495
X-49.594Y87.689
X-48.844Y70.236
X-48.764Y117.596
X-48.252Y41.308
X-48.1Y100.295
X-47.842Y39.958
X-47.711Y68.836
X-46.332Y71.228
X-45.032Y111.098
X-44.912Y42.445
X-44.156Y71.804
X-40.442Y95.978
X-37.011Y95.599
X-36.772Y53.748
X-34.922Y50.818
X-34.512Y38.477
X-34.512Y35.302
X-34.512Y32.127
X-34.492Y58.828
X-34.002Y71.718
X-33.719Y44.033
X-33.079Y69.146
X-32.131Y40.858
X-31.854Y96.736
X-31.337Y48.002
X-29.982Y73.348
X-26.579Y95.256
X-19.382Y49.638
X-17.844Y59.908
X-15.462Y82.133
X-13.081Y45.62
X-13.081Y39.27
X-12.212Y32.595
X-10.804Y79.285
X-10.7Y48.002
X-10.112Y95.277
X-9.906Y50.383
X-9.906Y43.239
X-7.838Y110.001
X-5.206Y116.842
X-4.984Y75.485
X0.238Y32.795
X0.994Y40.442
X1.094Y71.742
X1.331Y100.32
X4.381Y63.877
X5.006Y67.695
X5.138Y50.445
X5.594Y113.842
X13.506Y64.745
X20.194Y121.242
X21.844Y55.145
X22.306Y110.945
X26.088Y59.745
X27.4Y35.302
X27.838Y55.095
X40.894Y112.295
X44.863Y58.32
X45.656Y81.339
X45.656Y64.67
X45.656Y51.177
X48.594Y44.442
X48.844Y39.442
X51.213Y38.477
X51.213Y33.714
X52.794Y99.442
X52.794Y96.642
X56.769Y54.352
X80.581Y33.714
X95.663Y25.777
X98.044Y112.295
X109.594Y45.242
X109.594Y42.642
X109.994Y97.042
X110.194Y100.242
X111.538Y32.92
X114.794Y95.642
X115.506Y47.208
X116.014Y119.915
X117.538Y117.375
X119.472Y100.386
X119.542Y98.805
X119.581Y43.32
X123.081Y98.12
X123.556Y41.195
T3
X-18.972Y90.958
X-16.432Y90.958
X-13.892Y90.958
X-11.352Y90.958
X-40.867Y60.882
X-40.867Y58.342
X-40.867Y55.802
X-40.867Y53.262
X-40.867Y50.722
X-40.867Y48.182
X-40.867Y45.642
X-40.867Y43.102
X-40.867Y40.562
X-40.867Y38.022
X-40.867Y35.482
X-40.867Y32.942
X-25.647Y60.882
X-25.647Y58.342
X-25.647Y55.802
X-25.647Y53.262
X-25.647Y50.722
X-25.647Y48.182
X-25.647Y45.642
X-25.647Y43.102
X-25.647Y40.562
X-25.647Y38.022
X-25.647Y35.482
X-25.647Y32.942
X-35.372Y90.948
X-32.832Y90.948
X-30.292Y90.948
X-27.752Y90.948
X-21.154Y60.885
X-21.154Y58.345
X-21.154Y55.805
X-21.154Y53.265
X-21.154Y50.725
X-21.154Y48.185
X-21.154Y45.645
X-21.154Y43.105
X-21.154Y40.565
X-21.154Y38.025
X-21.154Y35.485
X-21.154Y32.945
X-5.934Y60.885
X-5.934Y58.345
X-5.934Y55.805
X-5.934Y53.265
X-5.934Y50.725
X-5.934Y48.185
X-5.934Y45.645
X-5.934Y43.105
X-5.934Y40.565
X-5.934Y38.025
X-5.934Y35.485
X-5.934Y32.945
T4
X-13.884Y86.125
X-13.884Y83.625
X-32.929Y86.092
X-32.929Y83.592
X-17.687Y116.105
X-17.687Y101.605
X-15.187Y101.605
X-12.687Y116.105
X-12.687Y101.605
X-34.087Y116.095
X-34.087Y101.595
X-31.587Y101.595
X-29.087Y116.095
X-29.087Y101.595
X-4.404Y113.385
X-4.404Y110.845
X-4.404Y108.305
X-4.404Y105.765
X-42.454Y113.397
X-42.454Y110.857
X-42.454Y108.317
X-42.454Y105.777
T5
X-13.081Y27.361
X-33.723Y23.386
T6
X-104.208Y73.551
X-97.858Y76.091
X-37.533Y30.688
X-31.183Y33.228
X-113.733Y54.501
X-107.383Y57.041
X-104.208Y35.451
X-97.858Y37.991
X-56.583Y49.738
X-50.233Y52.278
X97.409Y73.557
X103.759Y76.097
X123.603Y35.457
X129.953Y37.997
X54.547Y92.607
X60.897Y95.147
X-132.783Y54.501
X-126.433Y57.041
X68.834Y54.507
X75.184Y57.047
X-19.01Y111.657
X-12.66Y114.197
X-75.633Y30.688
X-69.283Y33.228
X-73.252Y73.551
X-66.902Y76.091
X9.303Y73.557
X15.653Y76.097
X-80.396Y111.651
X-74.046Y114.191
X40.259Y73.557
X46.609Y76.097
X-199.458Y73.551
X-193.108Y76.091
X90.266Y35.457
X96.616Y37.997
X73.597Y92.607
X79.947Y95.147
X87.884Y54.507
X94.234Y57.047
X121.222Y111.657
X127.572Y114.197
X6.922Y111.657
X13.272Y114.197
X-132.783Y35.451
X-126.433Y37.991
X-35.41Y111.647
X-29.06Y114.187
X59.309Y73.557
X65.659Y76.097
X-189.933Y54.501
X-183.583Y57.041
X45.022Y111.657
X51.372Y114.197
X102.172Y111.657
X108.522Y114.197
X-180.408Y73.551
X-174.058Y76.091
X106.934Y54.507
X113.284Y57.047
X-61.346Y111.651
X-54.996Y114.191
X-108.971Y92.601
X-102.621Y95.141
X-85.158Y73.551
X-78.808Y76.091
X14.066Y73.557
X20.416Y76.097
X-70.871Y111.651
X-64.521Y114.191
X-118.496Y111.651
X-112.146Y114.191
X-194.696Y111.651
X-188.346Y114.191
X-118.496Y35.451
X-112.146Y37.991
X-156.596Y111.651
X-150.246Y114.191
X78.359Y73.557
X84.709Y76.097
X-128.021Y92.601
X-121.671Y95.141
X-89.921Y92.601
X-83.571Y95.141
X11.684Y92.607
X18.034Y95.147
X-87.539Y54.501
X-81.189Y57.041
X-151.833Y54.501
X-145.483Y57.041
X125.984Y54.507
X132.334Y57.047
X-185.171Y92.601
X-178.821Y95.141
X-204.221Y92.601
X-197.871Y95.141
X-142.308Y73.551
X-135.958Y76.091
X33.116Y35.457
X39.466Y37.997
X49.784Y54.507
X56.134Y57.047
X92.647Y92.607
X98.997Y95.147
X25.972Y111.657
X32.322Y114.197
X18.828Y54.507
X25.178Y57.047
X111.697Y92.607
X118.047Y95.147
X-57.372Y84.514
X-54.832Y78.164
X83.122Y111.657
X89.472Y114.197
X-166.121Y92.601
X-159.771Y95.141
X-99.446Y35.451
X-93.096Y37.991
X116.459Y73.557
X122.809Y76.097
X-56.583Y30.688
X-50.233Y33.228
X-173.264Y35.451
X-166.914Y37.991
X-99.446Y111.651
X-93.096Y114.191
X-66.108Y92.601
X-59.758Y95.141
X9.303Y35.457
X15.653Y37.997
X-123.258Y73.551
X-116.908Y76.091
X56.928Y35.457
X63.278Y37.997
X-161.358Y73.551
X-155.008Y76.091
X35.497Y92.607
X41.847Y95.147
X30.734Y54.507
X37.084Y57.047
X-137.546Y35.451
X-131.196Y37.991
X9.303Y54.507
X15.653Y57.047
X-170.883Y54.501
X-164.533Y57.041
X-137.546Y111.651
X-131.196Y114.191
X64.072Y111.657
X70.422Y114.197
X-175.646Y111.651
X-169.296Y114.191
X-147.071Y92.601
X-140.721Y95.141
T8
X-24.15Y75.719
X-24.15Y74.957
X-24.15Y74.183
X-24.15Y73.433
X-24.15Y72.683
X-22.65Y75.719
X-22.65Y74.957
X-22.65Y74.183
X-22.65Y73.433
X-22.65Y72.683
X-24.15Y96.357
X-24.15Y95.595
X-24.15Y94.821
X-24.15Y94.071
X-24.15Y93.321
X-22.65Y96.357
X-22.65Y95.595
X-22.65Y94.821
X-22.65Y94.071
X-22.65Y93.321
X-24.15Y28.888
X-24.15Y28.126
X-24.15Y27.352
X-24.15Y26.602
X-24.15Y25.852
X-22.65Y28.888
X-22.65Y28.126
X-22.65Y27.352
X-22.65Y26.602
X-22.65Y25.852
X-24.15Y116.201
X-24.15Y115.439
X-24.15Y114.665
X-24.15Y113.915
X-24.15Y113.165
X-22.65Y116.201
X-22.65Y115.439
X-22.65Y114.665
X-22.65Y113.915
X-22.65Y113.165
X-24.15Y51.125
X-24.15Y50.363
X-24.15Y49.589
X-24.15Y48.839
X-24.15Y48.089
X-22.65Y51.125
X-22.65Y50.363
X-22.65Y49.589
X-22.65Y48.839
X-22.65Y48.089
T9
X17.364Y120.317
X23.144Y120.317
X-69.951Y120.331
X-64.171Y120.331
T10
X-19.604Y85.985
X-19.604Y82.985
X-27.201Y85.961
X-27.201Y82.961
T11
X115.504Y122.577
X115.504Y115.577
X-181.361Y122.617
X-181.361Y115.617
T12
X-57.853Y28.148
X-47.693Y28.148
X-174.534Y32.911
X-164.374Y32.911
X-100.716Y109.111
X-90.556Y109.111
X-67.378Y90.061
X-57.218Y90.061
X8.033Y32.917
X18.193Y32.917
X-124.528Y71.011
X-114.368Y71.011
X55.658Y32.917
X65.818Y32.917
X-162.628Y71.011
X-152.468Y71.011
X34.227Y90.067
X44.387Y90.067
X29.464Y51.967
X39.624Y51.967
X-138.816Y32.911
X-128.656Y32.911
X8.033Y51.967
X18.193Y51.967
X-172.153Y51.961
X-161.993Y51.961
X-138.816Y109.111
X-128.656Y109.111
X62.802Y109.117
X72.962Y109.117
X-176.916Y109.111
X-166.756Y109.111
X-148.341Y90.061
X-138.181Y90.061
X-105.478Y71.011
X-95.318Y71.011
X-38.803Y28.148
X-28.643Y28.148
X-115.003Y51.961
X-104.843Y51.961
X-105.478Y32.911
X-95.318Y32.911
X-57.853Y47.198
X-47.693Y47.198
X96.139Y71.017
X106.299Y71.017
X122.333Y32.917
X132.493Y32.917
X53.277Y90.067
X63.437Y90.067
X-134.053Y51.961
X-123.893Y51.961
X67.564Y51.967
X77.724Y51.967
X-20.28Y109.117
X-10.12Y109.117
X-76.903Y28.148
X-66.743Y28.148
X-74.522Y71.011
X-64.362Y71.011
X8.033Y71.017
X18.193Y71.017
X-81.666Y109.111
X-71.506Y109.111
X38.989Y71.017
X49.149Y71.017
X-200.728Y71.011
X-190.568Y71.011
X88.996Y32.917
X99.156Y32.917
X72.327Y90.067
X82.487Y90.067
X86.614Y51.967
X96.774Y51.967
X119.952Y109.117
X130.112Y109.117
X5.652Y109.117
X15.812Y109.117
X-134.053Y32.911
X-123.893Y32.911
X-36.68Y109.107
X-26.52Y109.107
X58.039Y71.017
X68.199Y71.017
X-191.203Y51.961
X-181.043Y51.961
X43.752Y109.117
X53.912Y109.117
X100.902Y109.117
X111.062Y109.117
X-181.678Y71.011
X-171.518Y71.011
X105.664Y51.967
X115.824Y51.967
X-62.616Y109.111
X-52.456Y109.111
X-110.241Y90.061
X-100.081Y90.061
X-86.428Y71.011
X-76.268Y71.011
X12.796Y71.017
X22.956Y71.017
X-72.141Y109.111
X-61.981Y109.111
X-119.766Y109.111
X-109.606Y109.111
X-195.966Y109.111
X-185.806Y109.111
X-119.766Y32.911
X-109.606Y32.911
X-157.866Y109.111
X-147.706Y109.111
X77.089Y71.017
X87.249Y71.017
X-129.291Y90.061
X-119.131Y90.061
X-91.191Y90.061
X-81.031Y90.061
X10.414Y90.067
X20.574Y90.067
X-88.809Y51.961
X-78.649Y51.961
X-153.103Y51.961
X-142.943Y51.961
X124.714Y51.967
X134.874Y51.967
X-186.441Y90.061
X-176.281Y90.061
X-205.491Y90.061
X-195.331Y90.061
X-143.578Y71.011
X-133.418Y71.011
X31.846Y32.917
X42.006Y32.917
X48.514Y51.967
X58.674Y51.967
X91.377Y90.067
X101.537Y90.067
X24.702Y109.117
X34.862Y109.117
X17.558Y51.967
X27.718Y51.967
X110.427Y90.067
X120.587Y90.067
X-59.912Y85.784
X-59.912Y75.624
X81.852Y109.117
X92.012Y109.117
X-167.391Y90.061
X-157.231Y90.061
X-100.716Y32.911
X-90.556Y32.911
X115.189Y71.017
X125.349Y71.017
T13
X82.169Y25.932
X105.982Y25.932
X-78.967Y116.096
X-55.154Y116.096
X10.732Y58.952
X34.544Y58.952
X-52.927Y92.642
X-52.927Y68.766
X-181.361Y25.926
X-157.548Y25.926
X-81.348Y77.996
X-57.536Y77.996
T14
X129.794Y51.967
X-181.361Y90.061
X-200.411Y90.061
X-138.498Y71.011
X36.926Y32.917
X53.594Y51.967
X96.457Y90.067
X29.782Y109.117
X10.732Y43.712
X22.638Y51.967
X34.544Y43.712
X115.507Y90.067
X-68.167Y92.642
X-68.167Y68.766
X-59.912Y80.704
X86.932Y109.117
X-162.311Y90.061
X-95.636Y32.911
X120.269Y71.017
X-52.773Y28.148
X-181.361Y41.166
X-169.454Y32.911
X-157.548Y41.166
X-95.636Y109.111
X-62.298Y90.061
X13.113Y32.917
X-119.448Y71.011
X60.738Y32.917
X-157.548Y71.011
X39.307Y90.067
X34.544Y51.967
X-133.736Y32.911
X13.113Y51.967
X-167.073Y51.961
X-133.736Y109.111
X67.882Y109.117
X-171.836Y109.111
X-143.261Y90.061
X-100.398Y71.011
X-33.723Y28.148
X-109.923Y51.961
X-100.398Y32.911
X-52.773Y47.198
X101.219Y71.017
X127.413Y32.917
X58.357Y90.067
X-128.973Y51.961
X72.644Y51.967
X-15.2Y109.117
X-71.823Y28.148
X-81.348Y62.756
X-69.442Y71.011
X-57.536Y62.756
X13.113Y71.017
X-76.586Y109.111
X44.069Y71.017
X-195.648Y71.011
X82.169Y41.172
X94.076Y32.917
X105.982Y41.172
X77.407Y90.067
X91.694Y51.967
X125.032Y109.117
X10.732Y109.117
X-128.973Y32.911
X-31.6Y109.107
X63.119Y71.017
X-186.123Y51.961
X48.832Y109.117
X105.982Y109.117
X-176.598Y71.011
X110.744Y51.967
X-57.536Y109.111
X-105.161Y90.061
X-81.348Y71.011
X17.876Y71.017
X-78.967Y100.856
X-67.061Y109.111
X-55.154Y100.856
X-114.686Y109.111
X-190.886Y109.111
X-114.686Y32.911
X-152.786Y109.111
X82.169Y71.017
X-124.211Y90.061
X-86.111Y90.061
X15.494Y90.067
X-83.729Y51.961
X-148.023Y51.961
T2
G00X15.934Y124.267
M15
G01X15.934Y123.667
M16
G05
G00X15.934Y120.337
M15
G01X15.934Y119.237
M16
G05
G00X24.574Y124.267
M15
G01X24.574Y123.667
M16
G05
G00X24.574Y120.337
M15
G01X24.574Y119.237
M16
G05
G00X-71.381Y124.281
M15
G01X-71.381Y123.681
M16
G05
G00X-71.381Y120.351
M15
G01X-71.381Y119.251
M16
G05
G00X-62.741Y124.281
M15
G01X-62.741Y123.681
M16
G05
G00X-62.741Y120.351
M15
G01X-62.741Y119.251
M16
G05
T7
G00X-20.787Y108.455
M15
G01X-20.787Y109.755
M16
G05
G00X-9.587Y108.455
M15
G01X-9.587Y109.755
M16
G05
G00X-37.187Y108.445
M15
G01X-37.187Y109.745
M16
G05
G00X-25.987Y108.445
M15
G01X-25.987Y109.745
M16
G05
T0
M30
